<svg version="1" xmlns="http://www.w3.org/2000/svg" width="298.667" height="298.667" viewBox="0 0 224.000000 224.000000"><path d="M99.5.6C73.5 3.9 50.8 14.9 33 32.9 19.7 46.4 11.4 59.8 5.4 77.8c-4.1 12-5.4 22-4.9 37.7.8 29.6 11.3 54.2 31.9 74.9 13.4 13.6 25.4 21.2 43.1 27.4 13.6 4.8 22.8 6.1 39.5 5.7 16.3-.3 27.2-2.6 41.6-8.8 15.2-6.4 32.9-20.1 43.7-33.7 9-11.5 17.1-28.2 20.8-43.4 1.8-7.5 3.9-34.8 2.6-33.6-.3.3-.7 4.7-.8 9.7-.6 27.6-11.1 53.5-29.9 73.9-12.5 13.6-27.2 22.9-47.5 30.3-11.3 4.1-33 6-46.8 4.2C54.4 216.2 18.4 186 6 144.3c-5.5-18.6-6.3-36-2.5-54.8 8-39.6 37.1-71.5 76-83.4 11.9-3.6 13.9-3.9 27-4.7 43.4-2.7 85.1 21.9 105.4 62.3 5.1 10 11.5 34.1 10.3 38.5-.1.5.2.8.7.8 1.9 0-1.7-17.8-6.1-30.5-8.2-23.9-28.5-46.6-53.8-60.2-7.8-4.1-22.1-9-31.5-10.6C124 .4 106.2-.2 99.5.6z"/><path d="M119 17.9c0 .5 1.1 3.2 2.4 6 1.7 3.8 2.3 6.4 1.9 9.6-.3 3.6 0 4.5 1.2 4.5 1 0 1.5-1 1.5-3.4 0-3.1.9-4.9 6.8-12.6 1.9-2.4 2-3 .8-3-.9 0-2.9 1.8-4.4 4-1.5 2.1-2.9 3.9-3.3 4-.3 0-1.5-2.3-2.6-5-1.9-4.4-4.3-6.7-4.3-4.1zM99.5 18.8c-.6.4-1 1.6-.9 2.7.1 1.1.5 5.1.8 8.8.6 7.1 1.2 9.1 2.5 8.3.4-.3.4-2.9 0-5.8-1.5-10.6-1.4-10.7 5.2-2.4 3.3 4.2 6.5 7.6 7.1 7.6.7 0 .8-2.1.5-5.8-.4-3.1-.6-7.6-.7-10 0-3.1-.4-4.2-1.6-4.2-1.3 0-1.4 1-.8 6.7.3 3.8.9 7.2 1.2 7.8.8 1.6-1-.5-6.8-7.8-2.9-3.7-5.4-6.7-5.4-6.7-.1 0-.6.4-1.1.8zM82.3 22c-5.1 2-7.2 10.5-3.9 15.5 4.3 6.5 12.6 6.1 15.9-.7 4.1-8.5-3.7-18.1-12-14.8zm7.7 4c1.1 1.1 2 2.3 2.1 2.7 0 .5.2 1.7.5 2.8.6 3.2-1.6 7.5-4.2 8.1-5.8 1.5-10.9-6.9-7.8-12.7 1.8-3.5 6.3-4 9.4-.9zM143.3 31.8c-5 5.3-6.9 7.9-6 8.4.7.5 2.1-.2 3.4-1.7 2.1-2.4 2.5-2.5 6.3-1.4 3.7 1.1 4 1.5 4 4.8 0 3 .5 4 2.9 5.4l2.8 1.7 4.8-7.9c2.6-4.4 4.8-8.3 4.7-8.7-.2-2.6-2.4-.5-6.7 6.8l-5 8.2-.3-10.9c-.2-10-1-12.8-3.2-12.4-.3.1-3.7 3.6-7.7 7.7zm8.1.2c.2 4.4 0 4.5-3.9 3l-2.7-1 2.9-3.4c1.5-1.8 3-3.1 3.2-3 .2.2.5 2.2.5 4.4zM64.3 28.6c-.7.3-1 1.1-.8 1.7.3.7 1.1 4.5 1.8 8.5 1.3 6.6 1.3 7.1-.2 5.9-.9-.7-3.6-3-6-5-8.1-6.8-9.4-4.7-4.1 6.2 2.2 4.5 4 8.6 4 9.1s-1.8.3-4-.5-4.8-1.1-5.7-.8c-1 .4-1.4.2-1-.4 1.1-1.8-1-6.1-3.2-6.8-2.6-.8-5.4.8-8.1 4.6l-2.2 3 3.8 3.6c2.2 1.9 5.4 4.9 7.2 6.6 2.1 2.1 3.5 2.8 4.2 2.1.7-.7 0-2-2-3.9-2.8-2.7-2.9-3-1.3-4.7 1.9-2.1 4.2-2.3 7.8-.6 2.2 1 2.9.9 4.8-1l2.1-2.2-3.2-6.5c-1.8-3.6-3.2-6.8-3.2-7 0-.3 2.8 1.8 6.2 4.5 3.4 2.8 6.6 5 7 5 1.1 0 1-2.3-.6-10.3-.7-3.7-1-6.7-.7-6.7.3.1 2.3 2.8 4.5 6 2.1 3.3 4.5 6 5.2 6 .8 0 1.4-.3 1.4-.6 0-1.1-11.1-16.4-11.8-16.3-.4 0-1.2.3-1.9.5zM45.8 50.7c1 1.9 0 5.7-1.7 6.7-.5.4-2.2-.4-3.7-1.7l-2.7-2.3 2.3-2.2c2.9-2.7 4.6-2.8 5.8-.5zM166.9 43.1c-7.1 8-7.7 8.9-5.6 8.9.8 0 2.8-1.5 4.5-3.4 2.7-3.1 3.1-3.3 3.5-1.5.3 1.1.3 4.1 0 6.7-.4 3.6-.1 5.1 1.1 6.1 1.4 1.2 1.6.8 1.7-3.5.1-2.7.1-6.1 0-7.7-.1-2.5.2-2.7 3.8-2.7 4.6 0 7.3-.9 6.5-2.1-.2-.5-3.3-.6-6.7-.2l-6.2.6 2.9-3.2c2.1-2.1 2.7-3.4 2-4.1-.8-.8-3.1 1.1-7.5 6.1zM179.2 56.2c-4.7 3.9-6.9 6.5-6.3 7.1 1.1 1.1 16.1-10.2 15.7-11.7-.5-2.2-2.5-1.2-9.4 4.6zM184.2 62.5c-4 2.4-7.6 4.5-7.8 4.8-.8.7 2.5 5.8 5 7.9 5.6 4.7 16.6-.1 16.6-7.2 0-2.9-3.8-10-5.3-9.9-.6.1-4.5 2.1-8.5 4.4zm10.2 1.7c1.4 3.9 0 7.3-3.8 9.3-2.9 1.6-3.8 1.7-6.4.6-1.6-.7-3.4-2.2-3.9-3.4-.9-1.9-.4-2.5 5.1-5.8 3.4-2 6.6-3.6 7.1-3.5.6.2 1.4 1.4 1.9 2.8zM26.7 66.5c-.5 1.1 1 3.6 4.2 7.5 2.7 3.2 5.6 6.9 6.5 8.1 1.4 2 1.8 2.2 2.6.9.6-1.1.2-2.2-1.4-4l-2.4-2.5 2.4-3.7c2.2-3.4 2.6-3.6 5.4-2.8 2.4.7 3.2.6 3.7-.6.7-2 .6-2.1-5.7-2.8-3-.3-7.6-.8-10.1-1.2-3.7-.5-4.7-.3-5.2 1.1zm11.1 2.4c.1.1-.5 1.5-1.4 3.2-.8 1.7-1.9 2.7-2.3 2.3-.3-.5-1.7-2.2-3.1-3.8l-2.5-2.8 4.5.5c2.5.3 4.6.6 4.8.6zM63.7 69.7c-1.2 2-2.7 9.6-2.2 11.2.6 2.1 3.6 3.7 12 6.6 7.3 2.5 8.7 5.2 2.8 5.7-3.1.2-3.9.8-4.7 3-1.2 3.5-.8 3.9 4.5 4.1l4.4.2.3 29c.1 15.9.4 29.6.7 30.3.3.8 1.1 1.2 1.8.9.6-.2 1.9.2 2.8 1 1.4 1.2 1.8 1.1 3-.3 1.1-1.4 1.4-6.9 1.4-27.1 0-24.7.1-25.4 1.9-24.9 1.1.3 3.9-.3 6.3-1.4 4.6-2 4.6-1.7.7 3.6-2 2.7-2.1 3.4-1 4.9.7 1 1.8 1.5 2.3 1.2 1.3-.8 1.9.7 2.2 5.8.4 8.5 5 31.8 6.5 33.4 1.5 1.4 1.6 1.3 1.6-.5 0-1.1-.7-7.2-1.5-13.5-1.3-9.3-2.7-21.5-2.7-23.9-.2-5.1.6-7.3 3.6-10.6l3.3-3.6 1.1 3.1c.6 1.8 1.8 3.1 2.8 3.1 1.3 0 1.5-.6 1-3.2-.4-1.8-1.3-3.9-2-4.7-1.2-1.1-1.9-.9-5 1.4-3.9 2.9-4.3 2.4-2.7-3.2.7-2.5.6-3.3-.7-3.8-1-.4-2.2.2-3.2 1.4-1.1 1.5-13.2 9.1-14.4 9.1-.1 0-.3-1.4-.4-3-.2-2 .2-3 1.2-3 .7 0 1.9-.7 2.6-1.5 1.6-1.9-.1-6.5-2.4-6.5-1.9 0-2.7-3.7-1-5.1.9-.8 7.1-1.2 17.7-1.4 20.1-.3 27.4.3 28.1 2.1.8 2.2-.4 4.4-2.5 4.4-1 0-1.9.6-2 1.2 0 .7-.2 2.1-.4 3-.3 1.7.6 2.2 3.3 1.9 1-.2 1.2 5.7 1 29.6-.2 25.2 0 30.1 1.2 31.5 1.3 1.4 1.7 1.4 3.7.1 1.3-.9 2.3-1.2 2.3-.8 0 .4.6.2 1.3-.4 1-.8 1.2-2.3.7-5.3-.3-2.4-.5-7.5-.4-11.3.2-5.5 1-29.9 1.3-41.8.1-1.3 1-1.7 4.5-1.7 2.5 0 4.8-.5 5.1-1 .9-1.4-2.2-6.1-3.8-5.9-3.3.4-4.7-.2-4.7-2.1 0-1.1.6-2.2 1.3-2.4 14.9-4.1 15.9-4.8 15.6-12-.4-8.3-1.4-9.3-5.5-5.5-1.3 1.2-5.3 3.1-8.9 4.3-6.1 2-8.6 2.1-37.3 2.1-27.8 0-31.2-.2-35.7-1.9-2.7-1.1-6.4-3-8.2-4.3-3.4-2.5-4-2.7-4.6-1.6zM191.1 80.1c-4 2.4-5.4 5.4-4.7 9.5 1.3 6.4 8.9 9.4 15.6 5.9 7.4-3.8 6.6-14-1.3-16.3-4.3-1.4-6.2-1.2-9.6.9zm11.7 2.9c2.4 2.9 2.3 5.6-.4 8.5-2.2 2.4-4.3 3-8.9 2.5-6.3-.6-6.4-9.5 0-12 3.6-1.5 7.5-1.1 9.3 1zM19.6 80.5c-.4 1 .6 1.8 3.4 2.6 4.5 1.4 4.4 1.1 2.9 6.2-.8 3-1.4 3.7-2.7 3.2-4-1.5-7.5-1.8-7-.5.2.7 4.4 2.6 9.2 4.2 7.1 2.4 9 2.7 9.7 1.6.6-1-.3-1.6-3.7-2.6-3.4-1-4.4-1.7-4-3 .3-.9.8-2.9 1.2-4.5.3-1.5.7-2.7.9-2.7.1 0 2.2.7 4.5 1.5 5.2 1.8 5 1.8 5 0 0-.9-2.9-2.3-8.7-4.1-4.9-1.4-9.1-2.8-9.4-3-.4-.2-.9.3-1.3 1.1z"/><path d="M103.2 92.6c-3.3 2.3-2.9 4.8.6 3.9 1.5-.4 3.9-.7 5.5-.6 3.2.2 3.7-2.3.8-3.9-2.7-1.4-4.3-1.3-6.9.6zM122 101.3c-4 1.4-4.6 3-1.2 3.5 2.1.3 2.2.5.7 1.6-2.2 1.6-.9 4.6 2 4.6 1.4 0 2.6-.7 2.9-1.8.4-1.1 1.8-2.5 3.1-3.2 2.9-1.6 3.1-2.3.9-4.1-2.2-1.8-4.3-1.9-8.4-.6zM120.3 114.2c-.6.7-1.8 2.9-2.7 4.8-1.2 2.5-1.3 3-.2 1.7.8-1.1 1.7-1.4 2-.8.4.6 1.3.8 2.1.5.8-.4 1.3-1 1-1.5-.3-.4-1.3-.5-2.3-.2-1.5.6-1.5.5-.3-1 1.8-2.3 2.5-2.1 4.1.8.8 1.6 2.2 2.5 3.7 2.5 2.8 0 3-1.6.3-2.5-1.1-.4-3.1-1.8-4.4-3.1-1.8-2-2.5-2.2-3.3-1.2z"/><path d="M119.7 122.2c-1 .5-1.5 1.3-1.2 1.9.9 1.4 4.2 1.1 4.8-.5.7-1.8-1.4-2.7-3.6-1.4zM119.2 130.5c-1 2.1-.9 2.3.5 1.8 1.1-.4 1.4-.3.9.5-.4.7-.1 1.2.6 1.2.7.1.1.8-1.4 1.6-3.3 1.8-3.6 2.9-.7 2.1 1.7-.4 1.9-.3 1 .6-1.5 1.5-1.4 3.2.2 1.9.9-.8 1.8-.4 3.3 1.2 1.1 1.3 1.8 2.8 1.6 3.5-.2.6.1 1.1.7 1.1s1.1-.6 1.1-1.4c0-.8.5-1.6 1.1-1.8.6-.2.2-1.4-1-2.8-1.7-2.1-2-2.2-1.4-.5.6 1.8.5 1.8-1 .6-1.3-1-1.5-1.7-.6-2.7.9-1.1.9-1.7 0-2.8-.6-.7-.9-2-.6-2.7.3-.8-.3-1.9-1.4-2.6-1.6-1-2-.8-2.9 1.2zM189 133.2c0 .9 2.8 2.3 7.3 3.7l7.2 2.4-9 2.1c-11.9 2.8-12.2 4.3-1.8 8 9.7 3.3 9.7 3.3 10.1 2.1.2-.5-2.8-2.1-6.7-3.5l-7-2.6 9.1-2.2c5.1-1.2 9.4-2.5 9.7-2.7 1-1-1.6-2.5-8.4-4.9-3.9-1.3-7.8-2.7-8.7-3.1-1.2-.5-1.8-.3-1.8.7zM30.8 144.4c-4.9 2.2-8.8 4.6-8.8 5.3 0 1.7.2 1.6 4.6-.5 2.5-1.1 3.8-1.3 4.1-.6.2.6 1 2 1.8 3 1.7 2.4 3.3.9 1.7-1.6-1.7-2.8-1.5-3.5 1.4-4.9 2.8-1.2 4.4-.7 4.4 1.3 0 .8.9 2.4 2 3.7 2.6 3.2 2.5.7-.3-5.2l-2.2-4.6-8.7 4.1zM122 149c-.8.5-1.1 1.2-.8 1.6 1 .9 3.8-.3 3.8-1.6 0-1.2-1-1.3-3 0zM116.5 150c.3.5.8 1 1.1 1 .2 0 .4-.5.4-1 0-.6-.5-1-1.1-1-.5 0-.7.4-.4 1z"/><path d="M116.4 152.6c-1.8 1.5-1.8 1.5.4.9 1.3-.4 2.2-.2 2.2.4 0 .6-.4 1.1-1 1.1-1.4 0-1.2 1.6.3 1.9 6.7 1.1 11.9 1.2 11.3.2-.4-.6-1.4-1.1-2.2-1.1-.8 0-1.4-1-1.4-2.5 0-1.4-.5-2.5-1-2.5-.6 0-1.6 1.1-2.2 2.5-.6 1.4-1.5 2.5-2 2.5s-.7-.4-.4-.9c.7-1.1-.3-4.1-1.3-4.1-.4 0-1.6.7-2.7 1.6zm8.3 1.9c0 .8-.4 1.2-.9.9-.5-.3-.6-1-.3-1.5.9-1.3 1.2-1.1 1.2.6zM179.2 156.7c-9 4.4-4.6 18.4 5.8 18.7 5.4.1 9-3.6 9-9.4 0-7.1-8.5-12.4-14.8-9.3zm8.4 3.4c2.2 1.1 4.4 4.9 4.4 7.4 0 2.2-3.7 5.5-6.2 5.5-3.1 0-8.5-4.5-9.1-7.6-.3-2 .2-3.3 1.8-5 2.4-2.4 5-2.5 9.1-.3zM41.4 159.9c-8 3.6-9.3 12.8-2.4 17 4.2 2.5 9.5 1.3 13.3-2.9 5.2-5.8 2.8-12.7-5.4-15.3-.9-.3-3.3.3-5.5 1.2zm8.4 2.7c4.3 3 1.5 11.4-4.4 12.8-8.2 2.1-11.3-7.1-4.1-12.2 3.7-2.6 5.5-2.7 8.5-.6zM163.7 172.8c-.7 1 11 14.6 12.8 15 2.4.5 1.8-1-2.1-5.3-2-2.2-4.7-5.5-6.1-7.3-2.5-3.2-3.8-3.9-4.6-2.4zM59.2 178.7c-4.2 6.6-5.1 9.3-4 12.2 1.9 5.2 8.6 6.8 12.6 3.1 4-3.7 8.5-11.1 7.4-12.2-.7-.7-2.4 1-5.1 5.1-4.7 6.9-7.9 8.5-11.2 5.5-2.5-2.3-1.9-5 2.7-11.9 3.8-5.8 4-6.5 2-6.5-.8 0-2.8 2.1-4.4 4.7zM151.2 181.6c-3.4 2-6 4-5.6 4.5.3.5 1.8.2 3.4-.6l2.9-1.5 4.1 7.5c2.3 4.1 4.5 7.5 4.9 7.5 2 0 1.5-1.7-2.5-8.8l-4.4-7.6 2.5-1.4c2.3-1.2 3.5-3.2 1.8-3.2-.5.1-3.6 1.7-7.1 3.6zM82.6 187.2c-1.5 4.9-4.5 15.5-4.6 16.3-.1.5.3 1.1.8 1.3.6.2 1.8-2.3 2.7-5.5 2.5-9.1 2.6-9.2 4.2-4.3.7 2.5 1.5 4.9 1.7 5.5 1 4.1 2.9 8.5 3.6 8.5.5 0 1.9-3.2 3.1-7.2 1.1-4 2.5-8.2 2.9-9.4.6-1.6.5-2.4-.5-2.7-.9-.4-1.9 1.5-3.3 6.6l-1.9 7.2-2.8-8.8c-1.7-5.5-3.2-8.7-4.1-8.7-.8 0-1.6.6-1.8 1.2zM132.6 190.7c-.3 1.6-.7 4.4-1 6.3-1.8 13.1-1.8 13-.2 13 1.2 0 1.6-1 1.6-3.5 0-3.1.3-3.5 4.1-4.7 4-1.1 4.3-1.1 6.3 1.5 2.3 2.9 5.2 3.7 4.2 1.2-1.1-3-11.9-16.5-13.1-16.5-.8 0-1.6 1.2-1.9 2.7zm5.6 5.1c1.8 3 1.8 3-.8 3.6-3.5.9-4 .3-3.6-4.4.5-4.5 1.4-4.3 4.4.8zM105.4 201c-.2 10.9-.4 10.5 6.1 10 4.2-.3 6.2-1.6 8-5 2.8-5.4 1.3-11.8-3.2-13.9-1.3-.6-4.3-1.1-6.6-1.1h-4.2l-.1 10zm10.7-5.4c4.5 4.1 1 13.4-5.1 13.4h-3v-16.1l3.1.5c1.7.2 3.9 1.2 5 2.2z"/></svg>