<svg width="330" height="136" viewBox="0 0 330 136" fill="none" xmlns="http://www.w3.org/2000/svg">
<g filter="url(#filter0_d)">
<rect x="8.5" y="7.5" width="71" height="119" fill="#EDEDED" stroke="#BDBDBD"/>
<path d="M9.19922 64.334H78.7992" stroke="#828282"/>
<path d="M42.7743 90.64C39.1903 90.64 35.9903 89.744 33.1743 87.952C30.3583 86.1173 28.1396 83.472 26.5183 80.016C24.897 76.5173 24.0863 72.3787 24.0863 67.6C24.0863 62.8213 24.897 58.704 26.5183 55.248C28.1396 51.7493 30.3583 49.104 33.1743 47.312C35.9903 45.4773 39.1903 44.56 42.7743 44.56C46.3583 44.56 49.5583 45.4773 52.3743 47.312C55.233 49.104 57.473 51.7493 59.0943 55.248C60.7156 58.704 61.5263 62.8213 61.5263 67.6C61.5263 72.3787 60.7156 76.5173 59.0943 80.016C57.473 83.472 55.233 86.1173 52.3743 87.952C49.5583 89.744 46.3583 90.64 42.7743 90.64ZM42.7743 83.408C45.9743 83.408 48.4916 82.0853 50.3263 79.44C52.2036 76.7947 53.1423 72.848 53.1423 67.6C53.1423 62.352 52.2036 58.4053 50.3263 55.76C48.4916 53.1147 45.9743 51.792 42.7743 51.792C39.617 51.792 37.0996 53.1147 35.2223 55.76C33.3876 58.4053 32.4703 62.352 32.4703 67.6C32.4703 72.848 33.3876 76.7947 35.2223 79.44C37.0996 82.0853 39.617 83.408 42.7743 83.408Z" fill="#333333"/>
<rect x="89" y="7.5" width="71" height="119" fill="#EDEDED" stroke="#BDBDBD"/>
<path d="M89.6992 64.334H159.299" stroke="#828282" stroke-width="0.5"/>
<path d="M144.335 79.824H136.399V90H128.335V79.824H103.759V74.064L125.839 45.2H134.735L113.935 72.784H128.591V63.76H136.399V72.784H144.335V79.824Z" fill="#333333"/>
<rect x="169.5" y="7.5" width="71" height="119" fill="#EDEDED" stroke="#BDBDBD"/>
<path d="M170.199 64.334H239.799" stroke="#828282" stroke-width="0.5"/>
<path d="M214.799 66.448C217.145 67.5147 218.937 68.9653 220.175 70.8C221.455 72.592 222.095 74.704 222.095 77.136C222.095 79.8667 221.327 82.256 219.791 84.304C218.297 86.352 216.164 87.9307 213.391 89.04C210.617 90.1067 207.396 90.64 203.727 90.64C200.057 90.64 196.836 90.1067 194.063 89.04C191.332 87.9307 189.22 86.352 187.727 84.304C186.233 82.256 185.487 79.8667 185.487 77.136C185.487 74.704 186.105 72.592 187.343 70.8C188.58 68.9653 190.351 67.5147 192.655 66.448C190.863 65.4667 189.476 64.1867 188.495 62.608C187.556 60.9867 187.087 59.1307 187.087 57.04C187.087 54.5227 187.769 52.3253 189.135 50.448C190.543 48.5707 192.505 47.12 195.023 46.096C197.54 45.072 200.441 44.56 203.727 44.56C207.055 44.56 209.977 45.072 212.495 46.096C215.012 47.12 216.975 48.5707 218.383 50.448C219.791 52.3253 220.495 54.5227 220.495 57.04C220.495 59.1307 220.004 60.9653 219.023 62.544C218.041 64.1227 216.633 65.424 214.799 66.448ZM203.727 51.088C201.124 51.088 199.055 51.6427 197.519 52.752C196.025 53.8613 195.279 55.4187 195.279 57.424C195.279 59.344 196.025 60.88 197.519 62.032C199.055 63.1413 201.124 63.696 203.727 63.696C206.372 63.696 208.463 63.1413 209.999 62.032C211.535 60.88 212.303 59.344 212.303 57.424C212.303 55.4187 211.513 53.8613 209.935 52.752C208.399 51.6427 206.329 51.088 203.727 51.088ZM203.727 84.112C206.799 84.112 209.231 83.472 211.023 82.192C212.815 80.912 213.711 79.1413 213.711 76.88C213.711 74.6613 212.815 72.912 211.023 71.632C209.231 70.352 206.799 69.712 203.727 69.712C200.655 69.712 198.244 70.352 196.495 71.632C194.745 72.912 193.871 74.6613 193.871 76.88C193.871 79.1413 194.745 80.912 196.495 82.192C198.244 83.472 200.655 84.112 203.727 84.112Z" fill="#333333"/>
<rect x="250" y="7.5" width="71" height="119" fill="#EDEDED" stroke="#BDBDBD"/>
<path d="M250.699 64.334H320.299" stroke="#828282" stroke-width="0.5"/>
<path d="M282.159 44.56C288.303 44.56 293.06 46.48 296.431 50.32C299.844 54.16 301.551 59.664 301.551 66.832C301.551 71.8667 300.634 76.176 298.799 79.76C296.964 83.3013 294.383 86.0107 291.055 87.888C287.77 89.7227 283.951 90.64 279.599 90.64C277.295 90.64 275.119 90.4053 273.071 89.936C271.066 89.424 269.316 88.6987 267.823 87.76L270.895 81.488C273.114 82.9387 275.951 83.664 279.407 83.664C283.716 83.664 287.087 82.3413 289.519 79.696C291.951 77.0507 293.167 73.232 293.167 68.24V68.176C291.844 69.712 290.159 70.8853 288.111 71.696C286.063 72.464 283.759 72.848 281.199 72.848C278.255 72.848 275.61 72.2933 273.263 71.184C270.916 70.032 269.082 68.4107 267.759 66.32C266.436 64.2293 265.775 61.8187 265.775 59.088C265.775 56.1867 266.5 53.648 267.951 51.472C269.402 49.2533 271.364 47.5467 273.839 46.352C276.314 45.1573 279.087 44.56 282.159 44.56ZM282.799 66.32C285.487 66.32 287.663 65.5947 289.327 64.144C291.034 62.6933 291.887 60.8587 291.887 58.64C291.887 56.464 291.055 54.672 289.391 53.264C287.77 51.8133 285.508 51.088 282.607 51.088C280.004 51.088 277.892 51.792 276.271 53.2C274.65 54.5653 273.839 56.4 273.839 58.704C273.839 61.0507 274.65 62.9067 276.271 64.272C277.892 65.6373 280.068 66.32 282.799 66.32Z" fill="#333333"/>
</g>
<defs>
<filter id="filter0_d" x="0" y="0" width="329.5" height="136" filterUnits="userSpaceOnUse" color-interpolation-filters="sRGB">
<feFlood flood-opacity="0" result="BackgroundImageFix"/>
<feColorMatrix in="SourceAlpha" type="matrix" values="0 0 0 0 0 0 0 0 0 0 0 0 0 0 0 0 0 0 127 0"/>
<feOffset dy="1"/>
<feGaussianBlur stdDeviation="4"/>
<feColorMatrix type="matrix" values="0 0 0 0 0 0 0 0 0 0 0 0 0 0 0 0 0 0 0.04 0"/>
<feBlend mode="normal" in2="BackgroundImageFix" result="effect1_dropShadow"/>
<feBlend mode="normal" in="SourceGraphic" in2="effect1_dropShadow" result="shape"/>
</filter>
</defs>
</svg>
