<svg width="195" height="80" viewBox="0 0 195 80" fill="none" xmlns="http://www.w3.org/2000/svg">
<rect x="0.125" y="0.125" width="47.75" height="79.75" fill="#EDEDED" stroke="#828282" stroke-width="0.25"/>
<path d="M0.799805 38.2222H47.1998" stroke="#828282" stroke-width="0.5"/>
<path d="M23.1829 54.4C20.9429 54.4 18.9429 53.84 17.1829 52.72C15.4229 51.5733 14.0362 49.92 13.0229 47.76C12.0095 45.5733 11.5029 42.9867 11.5029 40C11.5029 37.0133 12.0095 34.44 13.0229 32.28C14.0362 30.0933 15.4229 28.44 17.1829 27.32C18.9429 26.1733 20.9429 25.6 23.1829 25.6C25.4229 25.6 27.4229 26.1733 29.1829 27.32C30.9695 28.44 32.3695 30.0933 33.3829 32.28C34.3962 34.44 34.9029 37.0133 34.9029 40C34.9029 42.9867 34.3962 45.5733 33.3829 47.76C32.3695 49.92 30.9695 51.5733 29.1829 52.72C27.4229 53.84 25.4229 54.4 23.1829 54.4ZM23.1829 49.88C25.1829 49.88 26.7562 49.0533 27.9029 47.4C29.0762 45.7467 29.6629 43.28 29.6629 40C29.6629 36.72 29.0762 34.2533 27.9029 32.6C26.7562 30.9467 25.1829 30.12 23.1829 30.12C21.2095 30.12 19.6362 30.9467 18.4629 32.6C17.3162 34.2533 16.7429 36.72 16.7429 40C16.7429 43.28 17.3162 45.7467 18.4629 47.4C19.6362 49.0533 21.2095 49.88 23.1829 49.88Z" fill="#333333"/>
<rect x="49.125" y="0.125" width="47.75" height="79.75" fill="#EDEDED" stroke="#828282" stroke-width="0.25"/>
<path d="M49.7998 38.2222H96.1998" stroke="#828282" stroke-width="0.5"/>
<path d="M85.3457 47.64H80.3857V54H75.3457V47.64H59.9857V44.04L73.7857 26H79.3457L66.3457 43.24H75.5057V37.6H80.3857V43.24H85.3457V47.64Z" fill="#333333"/>
<rect x="98.125" y="0.125" width="47.75" height="79.75" fill="#EDEDED" stroke="#828282" stroke-width="0.25"/>
<path d="M98.7998 38.2222H145.2" stroke="#828282" stroke-width="0.5"/>
<path d="M121.183 54.4C118.943 54.4 116.943 53.84 115.183 52.72C113.423 51.5733 112.036 49.92 111.023 47.76C110.01 45.5733 109.503 42.9867 109.503 40C109.503 37.0133 110.01 34.44 111.023 32.28C112.036 30.0933 113.423 28.44 115.183 27.32C116.943 26.1733 118.943 25.6 121.183 25.6C123.423 25.6 125.423 26.1733 127.183 27.32C128.97 28.44 130.37 30.0933 131.383 32.28C132.396 34.44 132.903 37.0133 132.903 40C132.903 42.9867 132.396 45.5733 131.383 47.76C130.37 49.92 128.97 51.5733 127.183 52.72C125.423 53.84 123.423 54.4 121.183 54.4ZM121.183 49.88C123.183 49.88 124.756 49.0533 125.903 47.4C127.076 45.7467 127.663 43.28 127.663 40C127.663 36.72 127.076 34.2533 125.903 32.6C124.756 30.9467 123.183 30.12 121.183 30.12C119.21 30.12 117.636 30.9467 116.463 32.6C115.316 34.2533 114.743 36.72 114.743 40C114.743 43.28 115.316 45.7467 116.463 47.4C117.636 49.0533 119.21 49.88 121.183 49.88Z" fill="#333333"/>
<rect x="147.125" y="0.125" width="47.75" height="79.75" fill="#EDEDED" stroke="#828282" stroke-width="0.25"/>
<path d="M147.8 38.2222H194.2" stroke="#828282" stroke-width="0.5"/>
<path d="M169.04 36.84C172.987 36.84 175.907 37.6133 177.8 39.16C179.694 40.68 180.64 42.76 180.64 45.4C180.64 47.08 180.227 48.6 179.4 49.96C178.574 51.32 177.334 52.4 175.68 53.2C174.027 54 171.987 54.4 169.56 54.4C167.56 54.4 165.627 54.12 163.76 53.56C161.894 52.9733 160.32 52.1733 159.04 51.16L161.24 47.12C162.28 47.9733 163.52 48.6533 164.96 49.16C166.427 49.64 167.934 49.88 169.48 49.88C171.32 49.88 172.76 49.5067 173.8 48.76C174.867 47.9867 175.4 46.9333 175.4 45.6C175.4 44.16 174.827 43.08 173.68 42.36C172.56 41.6133 170.627 41.24 167.88 41.24H161.12L162.56 26H179V30.36H166.96L166.36 36.84H169.04Z" fill="#333333"/>
</svg>
