<svg width="195" height="80" viewBox="0 0 195 80" fill="none" xmlns="http://www.w3.org/2000/svg">
<rect x="0.125" y="0.125" width="47.75" height="79.75" fill="#EDEDED" stroke="#828282" stroke-width="0.25"/>
<path d="M0.799805 38.2222H47.1998" stroke="#828282" stroke-width="0.5"/>
<path d="M23.1834 54.4C20.9434 54.4 18.9434 53.84 17.1834 52.72C15.4234 51.5733 14.0367 49.92 13.0234 47.76C12.01 45.5733 11.5034 42.9867 11.5034 40C11.5034 37.0133 12.01 34.44 13.0234 32.28C14.0367 30.0933 15.4234 28.44 17.1834 27.32C18.9434 26.1733 20.9434 25.6 23.1834 25.6C25.4234 25.6 27.4234 26.1733 29.1834 27.32C30.97 28.44 32.37 30.0933 33.3834 32.28C34.3967 34.44 34.9034 37.0133 34.9034 40C34.9034 42.9867 34.3967 45.5733 33.3834 47.76C32.37 49.92 30.97 51.5733 29.1834 52.72C27.4234 53.84 25.4234 54.4 23.1834 54.4ZM23.1834 49.88C25.1834 49.88 26.7567 49.0533 27.9034 47.4C29.0767 45.7467 29.6634 43.28 29.6634 40C29.6634 36.72 29.0767 34.2533 27.9034 32.6C26.7567 30.9467 25.1834 30.12 23.1834 30.12C21.21 30.12 19.6367 30.9467 18.4634 32.6C17.3167 34.2533 16.7434 36.72 16.7434 40C16.7434 43.28 17.3167 45.7467 18.4634 47.4C19.6367 49.0533 21.21 49.88 23.1834 49.88Z" fill="#333333"/>
<rect x="49.125" y="0.125" width="47.75" height="79.75" fill="#EDEDED" stroke="#828282" stroke-width="0.25"/>
<path d="M49.7998 38.2222H96.1998" stroke="#828282" stroke-width="0.5"/>
<path d="M85.3462 47.64H80.3862V54H75.3462V47.64H59.9862V44.04L73.7862 26H79.3462L66.3462 43.24H75.5062V37.6H80.3862V43.24H85.3462V47.64Z" fill="#333333"/>
<rect x="98.125" y="0.125" width="47.75" height="79.75" fill="#EDEDED" stroke="#828282" stroke-width="0.25"/>
<path d="M98.7998 38.2222H145.2" stroke="#828282" stroke-width="0.5"/>
<path d="M128.074 39.28C129.54 39.9467 130.66 40.8533 131.434 42C132.234 43.12 132.634 44.44 132.634 45.96C132.634 47.6667 132.154 49.16 131.194 50.44C130.26 51.72 128.927 52.7067 127.194 53.4C125.46 54.0667 123.447 54.4 121.154 54.4C118.86 54.4 116.847 54.0667 115.114 53.4C113.407 52.7067 112.087 51.72 111.154 50.44C110.22 49.16 109.754 47.6667 109.754 45.96C109.754 44.44 110.14 43.12 110.914 42C111.687 40.8533 112.794 39.9467 114.234 39.28C113.114 38.6667 112.247 37.8667 111.634 36.88C111.047 35.8667 110.754 34.7067 110.754 33.4C110.754 31.8267 111.18 30.4533 112.034 29.28C112.914 28.1067 114.14 27.2 115.714 26.56C117.287 25.92 119.1 25.6 121.154 25.6C123.234 25.6 125.06 25.92 126.634 26.56C128.207 27.2 129.434 28.1067 130.314 29.28C131.194 30.4533 131.634 31.8267 131.634 33.4C131.634 34.7067 131.327 35.8533 130.714 36.84C130.1 37.8267 129.22 38.64 128.074 39.28ZM121.154 29.68C119.527 29.68 118.234 30.0267 117.274 30.72C116.34 31.4133 115.874 32.3867 115.874 33.64C115.874 34.84 116.34 35.8 117.274 36.52C118.234 37.2133 119.527 37.56 121.154 37.56C122.807 37.56 124.114 37.2133 125.074 36.52C126.034 35.8 126.514 34.84 126.514 33.64C126.514 32.3867 126.02 31.4133 125.034 30.72C124.074 30.0267 122.78 29.68 121.154 29.68ZM121.154 50.32C123.074 50.32 124.594 49.92 125.714 49.12C126.834 48.32 127.394 47.2133 127.394 45.8C127.394 44.4133 126.834 43.32 125.714 42.52C124.594 41.72 123.074 41.32 121.154 41.32C119.234 41.32 117.727 41.72 116.634 42.52C115.54 43.32 114.994 44.4133 114.994 45.8C114.994 47.2133 115.54 48.32 116.634 49.12C117.727 49.92 119.234 50.32 121.154 50.32Z" fill="#333333"/>
<rect x="147.125" y="0.125" width="47.75" height="79.75" fill="#EDEDED" stroke="#828282" stroke-width="0.25"/>
<path d="M147.8 38.2222H194.2" stroke="#828282" stroke-width="0.5"/>
<path d="M168.861 25.6C172.701 25.6 175.675 26.8 177.781 29.2C179.915 31.6 180.981 35.04 180.981 39.52C180.981 42.6667 180.408 45.36 179.261 47.6C178.115 49.8133 176.501 51.5067 174.421 52.68C172.368 53.8267 169.981 54.4 167.261 54.4C165.821 54.4 164.461 54.2533 163.181 53.96C161.928 53.64 160.835 53.1867 159.901 52.6L161.821 48.68C163.208 49.5867 164.981 50.04 167.141 50.04C169.835 50.04 171.941 49.2133 173.461 47.56C174.981 45.9067 175.741 43.52 175.741 40.4V40.36C174.915 41.32 173.861 42.0533 172.581 42.56C171.301 43.04 169.861 43.28 168.261 43.28C166.421 43.28 164.768 42.9333 163.301 42.24C161.835 41.52 160.688 40.5067 159.861 39.2C159.035 37.8933 158.621 36.3867 158.621 34.68C158.621 32.8667 159.075 31.28 159.981 29.92C160.888 28.5333 162.115 27.4667 163.661 26.72C165.208 25.9733 166.941 25.6 168.861 25.6ZM169.261 39.2C170.941 39.2 172.301 38.7467 173.341 37.84C174.408 36.9333 174.941 35.7867 174.941 34.4C174.941 33.04 174.421 31.92 173.381 31.04C172.368 30.1333 170.955 29.68 169.141 29.68C167.515 29.68 166.195 30.12 165.181 31C164.168 31.8533 163.661 33 163.661 34.44C163.661 35.9067 164.168 37.0667 165.181 37.92C166.195 38.7733 167.555 39.2 169.261 39.2Z" fill="#333333"/>
</svg>
