<svg width="48" height="48" viewBox="0 0 48 48" fill="none" xmlns="http://www.w3.org/2000/svg">
<circle opacity="0.9" cx="24" cy="24" r="24" fill="#150A59"/>
<path fill-rule="evenodd" clip-rule="evenodd" d="M34.4727 18.9135C34.2178 17.7685 33.3111 16.9244 32.2212 16.7985C29.6373 16.5002 27.0227 16.4985 24.4203 16.5002C21.817 16.4985 19.2001 16.5002 16.617 16.7985C15.5279 16.9235 14.622 17.7685 14.3671 18.9135C14.004 20.5418 14 22.3217 14 24C14 25.6783 14 27.4574 14.363 29.0865C14.6179 30.2307 15.5231 31.0756 16.6137 31.2015C19.1976 31.4998 21.8122 31.5015 24.4155 31.4998C27.0195 31.5015 29.6341 31.4998 32.2164 31.2015C33.307 31.0756 34.2138 30.2315 34.4687 29.0865C34.8317 27.4566 34.8333 25.6783 34.8333 24C34.8333 22.3217 34.8358 20.5426 34.4727 18.9135ZM21.7283 27.3399V20.2234C23.9363 21.4134 26.1289 22.5959 28.3514 23.7925L21.7283 27.3399Z" fill="white"/>
</svg>
