<svg width="48" height="48" viewBox="0 0 48 48" fill="none" xmlns="http://www.w3.org/2000/svg">
<circle opacity="0.9" cx="24" cy="24" r="24" fill="#150A59"/>
<path fill-rule="evenodd" clip-rule="evenodd" d="M23.8811 19.119C21.2772 19.119 19.1192 21.2401 19.1192 23.8809C19.1172 24.5068 19.239 25.1269 19.4776 25.7056C19.7162 26.2842 20.0668 26.81 20.5094 27.2525C20.952 27.6951 21.4777 28.0458 22.0564 28.2844C22.635 28.523 23.2552 28.6448 23.8811 28.6428C26.5229 28.6428 28.643 26.4848 28.643 23.8809C28.643 21.277 26.4849 19.119 23.8811 19.119ZM23.8811 26.9316C23.0732 26.9278 22.2995 26.6052 21.7284 26.0339C21.1573 25.4625 20.8349 24.6888 20.8314 23.8809C20.8349 23.0731 21.1573 22.2993 21.7284 21.728C22.2995 21.1566 23.0732 20.834 23.8811 20.8303C24.6891 20.8338 25.463 21.1563 26.0343 21.7276C26.6057 22.299 26.9282 23.0729 26.9317 23.8809C26.9282 24.6889 26.6057 25.4628 26.0343 26.0342C25.463 26.6055 24.6891 26.9281 23.8811 26.9316Z" fill="white"/>
<path d="M28.8809 20.0714C29.5384 20.0714 30.0714 19.645 30.0714 19.119C30.0714 18.593 29.5384 18.1666 28.8809 18.1666C28.2234 18.1666 27.6904 18.593 27.6904 19.119C27.6904 19.645 28.2234 20.0714 28.8809 20.0714Z" fill="white"/>
<path fill-rule="evenodd" clip-rule="evenodd" d="M31.4695 16.3292C30.5206 15.3431 29.1698 14.8333 27.6376 14.8333H20.1227C16.9485 14.8333 14.833 16.9488 14.833 20.1229V27.6025C14.833 29.1701 15.3437 30.5199 16.3652 31.5051C17.3504 32.454 18.663 32.9285 20.159 32.9285H27.6014C29.1708 32.9285 30.4834 32.4168 31.4323 31.5051C32.4175 30.5562 32.9282 29.2073 32.9282 27.6379V20.1229C32.9282 18.5907 32.4166 17.2771 31.4686 16.3292H31.4695ZM31.25 27.6379C31.25 28.7691 30.9216 29.6818 30.2648 30.3013C29.608 30.9218 28.6963 31.2502 27.6014 31.2502H20.159C19.0649 31.2502 18.1523 30.9218 17.4965 30.3013C16.8397 29.6445 16.5103 28.7328 16.5103 27.6016V20.1229C16.5103 19.0289 16.8397 18.1163 17.4965 17.4595C18.116 16.8399 19.0649 16.5106 20.159 16.5106H27.6749C28.7689 16.5106 29.6815 16.8399 30.3383 17.4967C30.9579 18.1526 31.3226 19.0652 31.3226 20.1229V27.6379H31.25Z" fill="white"/>
</svg>
