<svg width="64" height="64" viewBox="0 0 64 64" fill="none" xmlns="http://www.w3.org/2000/svg">
<circle opacity="0.9" cx="32" cy="32" r="32" fill="#E0E0E0"/>
<path fill-rule="evenodd" clip-rule="evenodd" d="M45.9635 25.218C45.6236 23.6913 44.4146 22.5658 42.9614 22.398C39.5162 22.0003 36.0302 21.998 32.5602 22.0003C29.0892 21.998 25.5999 22.0003 22.1558 22.398C20.7037 22.5647 19.4958 23.6913 19.1559 25.218C18.6719 27.389 18.6665 29.7623 18.6665 32C18.6665 34.2377 18.6665 36.6099 19.1505 38.782C19.4904 40.3076 20.6973 41.4342 22.1515 41.602C25.5967 41.9997 29.0828 42.002 32.5538 41.9997C36.0259 42.002 39.5119 41.9997 42.955 41.602C44.4092 41.4342 45.6182 40.3087 45.9581 38.782C46.4421 36.6088 46.4443 34.2377 46.4443 32C46.4443 29.7623 46.4475 27.3901 45.9635 25.218ZM28.9709 36.4532V26.9646C31.9149 28.5512 34.8384 30.1278 37.8017 31.7233L28.9709 36.4532Z" fill="#150A59"/>
</svg>
