<svg width="64" height="64" viewBox="0 0 64 64" fill="none" xmlns="http://www.w3.org/2000/svg">
<circle opacity="0.9" cx="32" cy="32" r="32" fill="#E0E0E0"/>
<path fill-rule="evenodd" clip-rule="evenodd" d="M31.8414 25.4921C28.3696 25.4921 25.4922 28.3201 25.4922 31.8413C25.4895 32.6758 25.6519 33.5026 25.9701 34.2741C26.2882 35.0457 26.7558 35.7467 27.3459 36.3368C27.936 36.9269 28.637 37.3945 29.4085 37.7126C30.18 38.0307 31.0069 38.1931 31.8414 38.1904C35.3638 38.1904 38.1906 35.3131 38.1906 31.8413C38.1906 28.3694 35.3132 25.4921 31.8414 25.4921ZM31.8414 35.9088C30.7643 35.9038 29.7327 35.4736 28.9712 34.7118C28.2097 33.9501 27.7798 32.9184 27.7751 31.8413C27.7798 30.7641 28.2097 29.7324 28.9712 28.9707C29.7327 28.2089 30.7643 27.7787 31.8414 27.7737C32.9188 27.7784 33.9506 28.2084 34.7124 28.9702C35.4742 29.732 35.9043 30.7639 35.9089 31.8413C35.9043 32.9186 35.4742 33.9505 34.7124 34.7123C33.9506 35.4741 32.9188 35.9041 31.8414 35.9088Z" fill="#150A59"/>
<path d="M38.5087 26.7619C39.3853 26.7619 40.096 26.1933 40.096 25.492C40.096 24.7907 39.3853 24.2222 38.5087 24.2222C37.632 24.2222 36.9214 24.7907 36.9214 25.492C36.9214 26.1933 37.632 26.7619 38.5087 26.7619Z" fill="#150A59"/>
<path fill-rule="evenodd" clip-rule="evenodd" d="M41.9599 21.7723C40.6947 20.4574 38.8936 19.7777 36.8507 19.7777H26.8307C22.5985 19.7777 19.7778 22.5984 19.7778 26.8306V36.8034C19.7778 38.8935 20.4588 40.6933 21.8208 42.0069C23.1343 43.2721 24.8846 43.9047 26.8791 43.9047H36.8023C38.8948 43.9047 40.6451 43.2225 41.9103 42.0069C43.2238 40.7417 43.9048 38.9431 43.9048 36.8505V26.8306C43.9048 24.7877 43.2226 23.0362 41.9586 21.7723H41.9599ZM41.6671 36.8505C41.6671 38.3589 41.2293 39.5757 40.3536 40.4018C39.4778 41.2292 38.2622 41.667 36.8023 41.667H26.8791C25.4204 41.667 24.2036 41.2292 23.3291 40.4018C22.4534 39.5261 22.0143 38.3105 22.0143 36.8022V26.8306C22.0143 25.3719 22.4534 24.1551 23.3291 23.2794C24.1552 22.4532 25.4204 22.0141 26.8791 22.0141H36.9003C38.359 22.0141 39.5758 22.4532 40.4515 23.329C41.2777 24.2035 41.7639 25.4203 41.7639 26.8306V36.8505H41.6671Z" fill="#150A59"/>
</svg>
